<svg width="159" height="50" viewBox="0 0 159 50" fill="none" xmlns="http://www.w3.org/2000/svg">
<path d="M134.202 12.5328V14.8214H129.154V16.6389H133.439V18.8153H129.154V20.7673C131.375 20.7449 133.002 20.6551 134.898 20.341L135.189 22.5847C132.845 22.9662 130.892 23.0223 127.807 23.011H126.416V12.5328H134.202ZM128.974 27.0049V24.7163H143.154V31.6045H140.305V27.0049H128.974ZM134.314 18.6806V16.3696H136.378V11.5905H139.093V23.7739H136.378V18.6806H134.314ZM140.44 23.9085V11.209H143.154V23.9085H140.44Z" fill="#282C34"/>
<path d="M124.441 26.9374V29.3382H105.751V26.9374H113.604V23.2577H107.299V21.0139H110.037V15.1803H107.21V12.8917H122.871V15.1803H119.999V21.0139H122.781V23.2577H116.454V26.9374H124.441ZM112.909 21.0139H117.172V15.1803H112.909V21.0139Z" fill="#282C34"/>
<path d="M102.991 11.209V25.883H100.119V11.209H102.991ZM86.2083 17.6485C86.2083 14.6532 88.6539 12.4992 91.7951 12.5104C94.9251 12.4992 97.3708 14.6532 97.382 17.6485C97.3708 20.6888 94.9251 22.8315 91.7951 22.8315C88.6539 22.8315 86.2083 20.6888 86.2083 17.6485ZM89.0129 17.6485C88.9905 19.3538 90.1909 20.341 91.7951 20.341C93.3433 20.341 94.5437 19.3538 94.5549 17.6485C94.5437 15.9882 93.3433 14.9897 91.7951 15.0009C90.1909 14.9897 88.9905 15.9882 89.0129 17.6485ZM89.3046 31.2455V24.4021H92.199V28.9569H103.53V31.2455H89.3046Z" fill="#282C34"/>
<path d="M83.471 11.209V31.6045H80.5542V27.0946H76.4033V24.9406H80.5542V11.209H83.471ZM65.9475 21.5526C69.7731 21.5526 74.8439 21.5302 79.2528 20.9468L79.4099 23.0335C77.6149 23.3476 75.775 23.5495 73.9576 23.6729V30.9987H71.0632V23.8188C69.3692 23.8749 67.7537 23.8861 66.3065 23.8861L65.9475 21.5526ZM67.3835 16.2125C67.3723 13.7557 69.5711 12.028 72.6338 12.0168C75.6516 12.028 77.8729 13.7557 77.8841 16.2125C77.8729 18.7255 75.6516 20.3859 72.6338 20.3859C69.5711 20.3859 67.3723 18.7255 67.3835 16.2125ZM70.076 16.2125C70.0647 17.4915 71.1081 18.2095 72.6338 18.2095C74.1035 18.2095 75.1468 17.4915 75.1692 16.2125C75.1468 14.9673 74.1147 14.1932 72.6338 14.1932C71.1081 14.1932 70.0647 14.9673 70.076 16.2125Z" fill="#282C34"/>
<path d="M57.8248 13.0714V15.36H56.0074V24.2676C56.8376 24.2002 57.6453 24.1217 58.4306 24.0207L58.5877 26.085C54.4031 26.8142 49.7362 26.8927 46.2248 26.9151L45.9106 24.5817C46.6399 24.5817 47.4252 24.5817 48.2441 24.5705V15.36H46.4267V13.0714H57.8248ZM51.0039 24.5256C51.7443 24.5031 52.496 24.4695 53.2476 24.4358V15.36H51.0039V24.5256ZM59.4179 31.6045V11.1866H62.2898V18.9499H65.2964V21.2834H62.2898V31.6045H59.4179Z" fill="#282C34"/>
<path d="M154.557 43.7033H155.17L156.756 46.2611H156.801L158.386 43.7033H159L157.048 46.7996V49.1182H156.509V46.7996L154.557 43.7033Z" fill="#282C34"/>
<path d="M153.563 45.3938C153.365 44.687 152.8 44.1298 151.933 44.1298C150.893 44.1298 150.111 44.9675 150.115 46.4109C150.111 47.8507 150.889 48.692 151.97 48.692C152.935 48.692 153.619 48.0264 153.63 46.9494H152.082V46.4782H154.146V46.9419C154.15 48.3256 153.238 49.1931 151.97 49.1931C150.541 49.1931 149.592 48.1087 149.592 46.4109C149.592 44.7094 150.553 43.6287 151.933 43.6287C153.107 43.6287 153.933 44.4252 154.116 45.3938H153.563Z" fill="#282C34"/>
<path d="M148.775 46.4109C148.779 48.1087 147.796 49.1931 146.427 49.1931C145.051 49.1931 144.071 48.1049 144.071 46.4109C144.071 44.7132 145.051 43.6287 146.427 43.6287C147.796 43.6287 148.779 44.7132 148.775 46.4109ZM144.595 46.4109C144.591 47.8469 145.372 48.692 146.427 48.692C147.474 48.692 148.259 47.8507 148.259 46.4109C148.259 44.9712 147.474 44.1298 146.427 44.1298C145.376 44.1298 144.591 44.9675 144.595 46.4109Z" fill="#282C34"/>
<path d="M140.459 49.1183V43.7034H140.99V48.6396H143.555V49.1183H140.459Z" fill="#282C34"/>
<path d="M139.404 46.4109C139.408 48.1087 138.425 49.1931 137.056 49.1931C135.68 49.1931 134.7 48.1049 134.7 46.4109C134.7 44.7132 135.68 43.6287 137.056 43.6287C138.425 43.6287 139.408 44.7132 139.404 46.4109ZM135.223 46.4109C135.22 47.8469 136.001 48.692 137.056 48.692C138.103 48.692 138.888 47.8507 138.888 46.4109C138.888 44.9712 138.103 44.1298 137.056 44.1298C136.005 44.1298 135.22 44.9675 135.223 46.4109Z" fill="#282C34"/>
<path d="M133.653 43.7034V49.1183H133.144L129.996 44.6533H129.951V49.1183H129.42V43.7034H129.936L133.084 48.1759H133.129V43.7034H133.653Z" fill="#282C34"/>
<path d="M124.035 49.1182V43.7033H124.566V46.1714H127.595V43.7033H128.134V49.1182H127.595V46.6426H124.566V49.1182H124.035Z" fill="#282C34"/>
<path d="M122.487 45.4011C122.337 44.6644 121.694 44.1296 120.871 44.1296C119.854 44.1296 119.035 44.9336 119.039 46.4107C119.035 47.8916 119.854 48.6919 120.871 48.6919C121.694 48.6919 122.333 48.1608 122.487 47.4204H123.025C122.846 48.4301 122.019 49.1929 120.871 49.1929C119.495 49.1929 118.515 48.1085 118.515 46.4107C118.515 44.713 119.495 43.6285 120.871 43.6285C122.016 43.6285 122.842 44.3802 123.025 45.4011H122.487Z" fill="#282C34"/>
<path d="M114.454 49.1183V43.7034H117.625V44.1821H114.985V46.1715H117.46V46.6427H114.985V48.6396H117.677V49.1183H114.454Z" fill="#282C34"/>
<path d="M109.533 44.182V43.7033H113.49V44.182H111.784V49.1182H111.246V44.182H109.533Z" fill="#282C34"/>
<path d="M106.721 43.7034V49.1183H106.213L103.064 44.6533H103.019V49.1183H102.488V43.7034H103.004L106.153 48.1759H106.198V43.7034H106.721Z" fill="#282C34"/>
<path d="M101.434 46.4109C101.437 48.1087 100.454 49.1931 99.0852 49.1931C97.709 49.1931 96.7292 48.1049 96.7292 46.4109C96.7292 44.7132 97.709 43.6287 99.0852 43.6287C100.454 43.6287 101.437 44.7132 101.434 46.4109ZM97.2528 46.4109C97.249 47.8469 98.0306 48.692 99.0852 48.692C100.132 48.692 100.918 47.8507 100.918 46.4109C100.918 44.9712 100.132 44.1298 99.0852 44.1298C98.0343 44.1298 97.249 44.9675 97.2528 46.4109Z" fill="#282C34"/>
<path d="M95.6821 43.7034V49.1183H95.1511V43.7034H95.6821Z" fill="#282C34"/>
<path d="M90.2292 44.1821V43.7034H94.1857V44.1821H92.4805V49.1183H91.942V44.1821H90.2292Z" fill="#282C34"/>
<path d="M86.4523 49.1183H85.8914L87.8584 43.7034H88.4342L90.4012 49.1183H89.8403L89.2719 47.5103H87.0207L86.4523 49.1183ZM87.189 47.0391H89.1036L88.165 44.3915H88.1276L87.189 47.0391Z" fill="#282C34"/>
<path d="M79.9382 43.7033H80.559L82.4961 48.3553H82.5484L84.478 43.7033H85.1063V49.1182H84.5977V44.8027H84.5528L82.7578 49.1182H82.2792L80.4842 44.8027H80.4393V49.1182H79.9382V43.7033Z" fill="#282C34"/>
<path d="M75.3464 49.1183V43.7034H77.119C78.2857 43.7034 78.8803 44.3803 78.8766 45.3339C78.8803 46.0593 78.5363 46.6165 77.8594 46.8409L79.1009 49.1183H78.4877L77.3134 46.9419C77.2536 46.9456 77.19 46.9493 77.1265 46.9493H75.8775V49.1183H75.3464ZM75.8775 46.4632H77.104C77.9492 46.4632 78.353 46.0294 78.353 45.3339C78.353 44.6383 77.9492 44.1783 77.0965 44.1821H75.8775V46.4632Z" fill="#282C34"/>
<path d="M74.292 46.4109C74.2957 48.1087 73.3122 49.1931 71.9436 49.1931C70.5674 49.1931 69.5876 48.1049 69.5876 46.4109C69.5876 44.7132 70.5674 43.6287 71.9436 43.6287C73.3122 43.6287 74.2957 44.7132 74.292 46.4109ZM70.1112 46.4109C70.1074 47.8469 70.889 48.692 71.9436 48.692C72.9906 48.692 73.7759 47.8507 73.7759 46.4109C73.7759 44.9712 72.9906 44.1298 71.9436 44.1298C70.8927 44.1298 70.1074 44.9675 70.1112 46.4109Z" fill="#282C34"/>
<path d="M65.5857 49.1183V43.7034H68.7493V44.1821H66.1167V46.1715H68.5025V46.6427H66.1167V49.1183H65.5857Z" fill="#282C34"/>
<path d="M64.2993 43.7034V49.1183H63.7907L60.6421 44.6533H60.5972V49.1183H60.0662V43.7034H60.5822L63.7309 48.1759H63.7758V43.7034H64.2993Z" fill="#282C34"/>
<path d="M58.78 43.7033V49.1182H58.249V43.7033H58.78Z" fill="#282C34"/>
<path d="M51.8096 49.1182V43.7033H53.5821C54.7489 43.7033 55.3434 44.3802 55.3397 45.3337C55.3434 46.0592 54.9994 46.6164 54.3225 46.8408L55.5641 49.1182H54.9508L53.7766 46.9417C53.7167 46.9455 53.6532 46.9492 53.5896 46.9492H52.3406V49.1182H51.8096ZM52.3406 46.4631H53.5672C54.4123 46.4631 54.8162 46.0293 54.8162 45.3337C54.8162 44.6382 54.4123 44.1782 53.5597 44.182H52.3406V46.4631Z" fill="#282C34"/>
<path d="M47.5095 49.1183V43.7034H50.6807V44.1821H48.0405V46.1715H50.5161V46.6427H48.0405V48.6396H50.733V49.1183H47.5095Z" fill="#282C34"/>
<path d="M41.6076 49.1183L40.1267 43.7034H40.6727L41.8768 48.3031H41.9217L43.1333 43.7034H43.7391L44.9507 48.3031H44.9956L46.1997 43.7034H46.7457L45.2648 49.1183H44.6964L43.4549 44.5934H43.4175L42.176 49.1183H41.6076Z" fill="#282C34"/>
<path d="M39.6038 46.4107C39.6075 48.1085 38.624 49.1929 37.2553 49.1929C35.8792 49.1929 34.8994 48.1047 34.8994 46.4107C34.8994 44.713 35.8792 43.6285 37.2553 43.6285C38.624 43.6285 39.6075 44.713 39.6038 46.4107ZM35.423 46.4107C35.4192 47.8467 36.2008 48.6919 37.2553 48.6919C38.3024 48.6919 39.0877 47.8505 39.0877 46.4107C39.0877 44.971 38.3024 44.1296 37.2553 44.1296C36.2045 44.1296 35.4192 44.9673 35.423 46.4107Z" fill="#282C34"/>
<path d="M30.5913 49.1182V43.7033H32.3639C33.5306 43.7033 34.1252 44.4325 34.1214 45.3861C34.1252 46.3359 33.5306 47.0689 32.3713 47.0689H31.1223V49.1182H30.5913ZM31.1223 46.5902H32.3489C33.194 46.594 33.5979 46.0779 33.5979 45.3861C33.5979 44.6868 33.194 44.1782 32.3414 44.182H31.1223V46.5902Z" fill="#282C34"/>
<path d="M0 9.96022L5.20846 6.7472L14.3233 12.2093L9.1148 15.101V44.5002L0 49.4803V9.96022Z" fill="url(#paint0_linear_174_175)"/>
<path d="M17.9043 0L8.62671 5.30148L25.717 15.1012V21.2059L35.1573 15.9044V9.96035L17.9043 0Z" fill="url(#paint1_linear_174_175)"/>
<path d="M12.0444 37.1103V26.5073L17.2529 29.399L35.157 19.4387V30.0416L17.2529 40.1626L12.0444 37.1103Z" fill="url(#paint2_linear_174_175)"/>
<defs>
<linearGradient id="paint0_linear_174_175" x1="1.81562" y1="39.1587" x2="14.7685" y2="37.8163" gradientUnits="userSpaceOnUse">
<stop stop-color="#2B80C2"/>
<stop offset="1" stop-color="#2869B3"/>
</linearGradient>
<linearGradient id="paint1_linear_174_175" x1="11.9897" y1="16.0839" x2="33.0833" y2="7.92433" gradientUnits="userSpaceOnUse">
<stop stop-color="#2B80C2"/>
<stop offset="1" stop-color="#2869B3"/>
</linearGradient>
<linearGradient id="paint2_linear_174_175" x1="14.9742" y1="35.157" x2="33.8548" y2="28.6465" gradientUnits="userSpaceOnUse">
<stop stop-color="#2B80C2"/>
<stop offset="1" stop-color="#2869B3"/>
</linearGradient>
</defs>
</svg>
