<svg width="48" height="48" viewBox="0 0 48 48" fill="none" xmlns="http://www.w3.org/2000/svg">
<path d="M7.99998 27.9998C7.62151 28.0011 7.25045 27.895 6.92989 27.6938C6.60934 27.4926 6.35245 27.2045 6.18908 26.8632C6.02572 26.5218 5.96257 26.141 6.00698 25.7652C6.0514 25.3893 6.20154 25.0338 6.43998 24.7398L26.24 4.33984C26.3885 4.1684 26.5909 4.05255 26.8139 4.0113C27.037 3.97006 27.2674 4.00586 27.4674 4.11285C27.6675 4.21983 27.8252 4.39163 27.9147 4.60005C28.0042 4.80848 28.0201 5.04113 27.96 5.25984L24.12 17.2998C24.0068 17.6029 23.9687 17.9289 24.0092 18.2499C24.0496 18.5708 24.1673 18.8772 24.3522 19.1427C24.537 19.4082 24.7835 19.6249 25.0705 19.7742C25.3575 19.9234 25.6765 20.0009 26 19.9998H40C40.3785 19.9985 40.7495 20.1047 41.0701 20.3059C41.3906 20.5071 41.6475 20.7951 41.8109 21.1365C41.9743 21.4779 42.0374 21.8587 41.993 22.2345C41.9486 22.6104 41.7984 22.9659 41.56 23.2598L21.76 43.6598C21.6115 43.8313 21.4091 43.9471 21.186 43.9884C20.963 44.0296 20.7325 43.9938 20.5325 43.8868C20.3325 43.7798 20.1748 43.608 20.0853 43.3996C19.9958 43.1912 19.9798 42.9585 20.04 42.7398L23.88 30.6998C23.9932 30.3968 24.0312 30.0708 23.9908 29.7498C23.9504 29.4289 23.8327 29.1225 23.6478 28.857C23.4629 28.5915 23.2164 28.3748 22.9294 28.2255C22.6424 28.0762 22.3235 27.9988 22 27.9998H7.99998Z" stroke="#0013BD" stroke-width="4" stroke-linecap="round" stroke-linejoin="round"/>
</svg>
