<svg width="48" height="48" viewBox="0 0 48 48" fill="none" xmlns="http://www.w3.org/2000/svg">
<path d="M32 42V38C32 35.8783 31.1571 33.8434 29.6569 32.3431C28.1566 30.8429 26.1217 30 24 30H12C9.87827 30 7.84344 30.8429 6.34315 32.3431C4.84285 33.8434 4 35.8783 4 38V42" stroke="#0013BD" stroke-width="4" stroke-linecap="round" stroke-linejoin="round"/>
<path d="M18 22C22.4183 22 26 18.4183 26 14C26 9.58172 22.4183 6 18 6C13.5817 6 10 9.58172 10 14C10 18.4183 13.5817 22 18 22Z" stroke="#0013BD" stroke-width="4" stroke-linecap="round" stroke-linejoin="round"/>
<path d="M44 41.9998V37.9998C43.9987 36.2272 43.4087 34.5053 42.3227 33.1044C41.2368 31.7035 39.7163 30.7029 38 30.2598" stroke="#0013BD" stroke-width="4" stroke-linecap="round" stroke-linejoin="round"/>
<path d="M32 6.25977C33.7208 6.70037 35.2461 7.70117 36.3353 9.10439C37.4245 10.5076 38.0157 12.2334 38.0157 14.0098C38.0157 15.7861 37.4245 17.5119 36.3353 18.9151C35.2461 20.3184 33.7208 21.3192 32 21.7598" stroke="#0013BD" stroke-width="4" stroke-linecap="round" stroke-linejoin="round"/>
</svg>
