<svg width="48" height="48" viewBox="0 0 48 48" fill="none" xmlns="http://www.w3.org/2000/svg">
<path d="M12 44V8C12 6.93913 12.4214 5.92172 13.1716 5.17157C13.9217 4.42143 14.9391 4 16 4H32C33.0609 4 34.0783 4.42143 34.8284 5.17157C35.5786 5.92172 36 6.93913 36 8V44H12Z" stroke="#0013BD" stroke-width="4" stroke-linecap="round" stroke-linejoin="round"/>
<path d="M12 24H8C6.93913 24 5.92172 24.4214 5.17157 25.1716C4.42143 25.9217 4 26.9391 4 28V40C4 41.0609 4.42143 42.0783 5.17157 42.8284C5.92172 43.5786 6.93913 44 8 44H12" stroke="#0013BD" stroke-width="4" stroke-linecap="round" stroke-linejoin="round"/>
<path d="M36 18H40C41.0609 18 42.0783 18.4214 42.8284 19.1716C43.5786 19.9217 44 20.9391 44 22V40C44 41.0609 43.5786 42.0783 42.8284 42.8284C42.0783 43.5786 41.0609 44 40 44H36" stroke="#0013BD" stroke-width="4" stroke-linecap="round" stroke-linejoin="round"/>
<path d="M20 12H28" stroke="#0013BD" stroke-width="4" stroke-linecap="round" stroke-linejoin="round"/>
<path d="M20 20H28" stroke="#0013BD" stroke-width="4" stroke-linecap="round" stroke-linejoin="round"/>
<path d="M20 28H28" stroke="#0013BD" stroke-width="4" stroke-linecap="round" stroke-linejoin="round"/>
<path d="M20 36H28" stroke="#0013BD" stroke-width="4" stroke-linecap="round" stroke-linejoin="round"/>
</svg>
