<svg width="240" height="41" viewBox="0 0 240 41" fill="none" xmlns="http://www.w3.org/2000/svg">
<path d="M40.775 15.432H42.14C43.652 15.432 44.408 14.774 44.408 13.458C44.408 12.142 43.652 11.484 42.14 11.484H40.775V15.432ZM40.775 24H36.659V8.166H43.211C44.989 8.166 46.347 8.628 47.285 9.552C48.237 10.476 48.713 11.778 48.713 13.458C48.713 15.138 48.237 16.44 47.285 17.364C46.347 18.288 44.989 18.75 43.211 18.75H40.775V24ZM54.4824 16.083C54.4824 16.713 54.6014 17.294 54.8394 17.826C55.0774 18.358 55.3994 18.82 55.8054 19.212C56.2114 19.604 56.6804 19.912 57.2124 20.136C57.7584 20.346 58.3324 20.451 58.9344 20.451C59.5364 20.451 60.1034 20.346 60.6354 20.136C61.1814 19.912 61.6574 19.604 62.0634 19.212C62.4834 18.82 62.8124 18.358 63.0504 17.826C63.2884 17.294 63.4074 16.713 63.4074 16.083C63.4074 15.453 63.2884 14.872 63.0504 14.34C62.8124 13.808 62.4834 13.346 62.0634 12.954C61.6574 12.562 61.1814 12.261 60.6354 12.051C60.1034 11.827 59.5364 11.715 58.9344 11.715C58.3324 11.715 57.7584 11.827 57.2124 12.051C56.6804 12.261 56.2114 12.562 55.8054 12.954C55.3994 13.346 55.0774 13.808 54.8394 14.34C54.6014 14.872 54.4824 15.453 54.4824 16.083ZM50.1774 16.083C50.1774 14.907 50.3944 13.815 50.8284 12.807C51.2624 11.785 51.8644 10.896 52.6344 10.14C53.4044 9.384 54.3214 8.796 55.3854 8.376C56.4634 7.942 57.6464 7.725 58.9344 7.725C60.2084 7.725 61.3844 7.942 62.4624 8.376C63.5404 8.796 64.4644 9.384 65.2344 10.14C66.0184 10.896 66.6274 11.785 67.0614 12.807C67.4954 13.815 67.7124 14.907 67.7124 16.083C67.7124 17.259 67.4954 18.358 67.0614 19.38C66.6274 20.388 66.0184 21.27 65.2344 22.026C64.4644 22.782 63.5404 23.377 62.4624 23.811C61.3844 24.231 60.2084 24.441 58.9344 24.441C57.6464 24.441 56.4634 24.231 55.3854 23.811C54.3214 23.377 53.4044 22.782 52.6344 22.026C51.8644 21.27 51.2624 20.388 50.8284 19.38C50.3944 18.358 50.1774 17.259 50.1774 16.083ZM72.7122 8.166L75.4422 18.393L78.8022 8.166H82.0782L85.4382 18.393L88.1682 8.166H92.4732L87.7482 24H83.5482L80.4402 14.823L77.3322 24H73.1322L68.4072 8.166H72.7122ZM103.151 11.652H98.2584V14.298H102.878V17.784H98.2584V20.514H103.151V24H94.1424V8.166H103.151V11.652ZM110.235 15.243H111.012C111.824 15.243 112.447 15.075 112.881 14.739C113.315 14.403 113.532 13.92 113.532 13.29C113.532 12.66 113.315 12.177 112.881 11.841C112.447 11.505 111.824 11.337 111.012 11.337H110.235V15.243ZM119.286 24H114.162L110.235 17.91V24H106.119V8.166H112.524C113.406 8.166 114.176 8.299 114.834 8.565C115.492 8.817 116.031 9.167 116.451 9.615C116.885 10.063 117.207 10.581 117.417 11.169C117.641 11.757 117.753 12.387 117.753 13.059C117.753 14.263 117.459 15.243 116.871 15.999C116.297 16.741 115.443 17.245 114.309 17.511L119.286 24ZM132.26 8.166V24H128.144V8.166H132.26ZM135.568 24V8.166H139.684L147.286 17.847V8.166H151.381V24H147.286L139.684 14.319V24H135.568ZM163.774 11.652H158.818V14.298H163.333V17.784H158.818V24H154.702V8.166H163.774V11.652ZM169.798 16.083C169.798 16.713 169.917 17.294 170.155 17.826C170.393 18.358 170.715 18.82 171.121 19.212C171.527 19.604 171.996 19.912 172.528 20.136C173.074 20.346 173.648 20.451 174.25 20.451C174.852 20.451 175.419 20.346 175.951 20.136C176.497 19.912 176.973 19.604 177.379 19.212C177.799 18.82 178.128 18.358 178.366 17.826C178.604 17.294 178.723 16.713 178.723 16.083C178.723 15.453 178.604 14.872 178.366 14.34C178.128 13.808 177.799 13.346 177.379 12.954C176.973 12.562 176.497 12.261 175.951 12.051C175.419 11.827 174.852 11.715 174.25 11.715C173.648 11.715 173.074 11.827 172.528 12.051C171.996 12.261 171.527 12.562 171.121 12.954C170.715 13.346 170.393 13.808 170.155 14.34C169.917 14.872 169.798 15.453 169.798 16.083ZM165.493 16.083C165.493 14.907 165.71 13.815 166.144 12.807C166.578 11.785 167.18 10.896 167.95 10.14C168.72 9.384 169.637 8.796 170.701 8.376C171.779 7.942 172.962 7.725 174.25 7.725C175.524 7.725 176.7 7.942 177.778 8.376C178.856 8.796 179.78 9.384 180.55 10.14C181.334 10.896 181.943 11.785 182.377 12.807C182.811 13.815 183.028 14.907 183.028 16.083C183.028 17.259 182.811 18.358 182.377 19.38C181.943 20.388 181.334 21.27 180.55 22.026C179.78 22.782 178.856 23.377 177.778 23.811C176.7 24.231 175.524 24.441 174.25 24.441C172.962 24.441 171.779 24.231 170.701 23.811C169.637 23.377 168.72 22.782 167.95 22.026C167.18 21.27 166.578 20.388 166.144 19.38C165.71 18.358 165.493 17.259 165.493 16.083ZM191.47 11.652V24H187.354V11.652H183.973V8.166H194.851V11.652H191.47ZM205.69 11.652H200.797V14.298H205.417V17.784H200.797V20.514H205.69V24H196.681V8.166H205.69V11.652ZM220.061 13.458C219.109 12.296 217.933 11.715 216.533 11.715C215.917 11.715 215.343 11.827 214.811 12.051C214.293 12.275 213.845 12.583 213.467 12.975C213.089 13.353 212.788 13.808 212.564 14.34C212.354 14.872 212.249 15.446 212.249 16.062C212.249 16.692 212.354 17.273 212.564 17.805C212.788 18.337 213.089 18.799 213.467 19.191C213.859 19.583 214.314 19.891 214.832 20.115C215.35 20.339 215.91 20.451 216.512 20.451C217.828 20.451 219.011 19.891 220.061 18.771V23.643L219.641 23.79C219.011 24.014 218.423 24.175 217.877 24.273C217.331 24.385 216.792 24.441 216.26 24.441C215.168 24.441 214.118 24.238 213.11 23.832C212.116 23.412 211.234 22.831 210.464 22.089C209.708 21.333 209.099 20.444 208.637 19.422C208.175 18.386 207.944 17.259 207.944 16.041C207.944 14.823 208.168 13.71 208.616 12.702C209.078 11.68 209.687 10.805 210.443 10.077C211.213 9.335 212.102 8.761 213.11 8.355C214.118 7.935 215.175 7.725 216.281 7.725C216.911 7.725 217.527 7.795 218.129 7.935C218.745 8.061 219.389 8.264 220.061 8.544V13.458ZM227.458 14.277H233.401V8.166H237.517V24H233.401V17.469H227.458V24H223.342V8.166H227.458V14.277Z" fill="white"/>
<path d="M35.5879 38V33.0508H37.208C38.2744 33.0508 38.8179 33.7173 38.8145 34.5889C38.8179 35.457 38.2744 36.127 37.2148 36.127H36.0732V38H35.5879ZM36.0732 35.6895H37.1943C37.9668 35.6929 38.3359 35.2212 38.3359 34.5889C38.3359 33.9497 37.9668 33.4849 37.1875 33.4883H36.0732V35.6895ZM43.8252 35.5254C43.8286 37.0771 42.9297 38.0684 41.6787 38.0684C40.4209 38.0684 39.5254 37.0737 39.5254 35.5254C39.5254 33.9736 40.4209 32.9824 41.6787 32.9824C42.9297 32.9824 43.8286 33.9736 43.8252 35.5254ZM40.0039 35.5254C40.0005 36.8379 40.7148 37.6104 41.6787 37.6104C42.6357 37.6104 43.3535 36.8413 43.3535 35.5254C43.3535 34.2095 42.6357 33.4404 41.6787 33.4404C40.7183 33.4404 40.0005 34.2061 40.0039 35.5254ZM45.6572 38L44.3037 33.0508H44.8027L45.9033 37.2549H45.9443L47.0518 33.0508H47.6055L48.7129 37.2549H48.7539L49.8545 33.0508H50.3535L49 38H48.4805L47.3457 33.8643H47.3115L46.1768 38H45.6572ZM51.0508 38V33.0508H53.9492V33.4883H51.5361V35.3066H53.7988V35.7373H51.5361V37.5625H53.9971V38H51.0508ZM54.9814 38V33.0508H56.6016C57.668 33.0508 58.2114 33.6694 58.208 34.541C58.2114 35.2041 57.897 35.7134 57.2783 35.9185L58.4131 38H57.8525L56.7793 36.0107C56.7246 36.0142 56.6665 36.0176 56.6084 36.0176H55.4668V38H54.9814ZM55.4668 35.5732H56.5879C57.3604 35.5732 57.7295 35.1768 57.7295 34.541C57.7295 33.9053 57.3604 33.4849 56.5811 33.4883H55.4668V35.5732ZM61.3525 33.0508V38H60.8672V33.0508H61.3525ZM66.3975 33.0508V38H65.9326L63.0547 33.9189H63.0137V38H62.5283V33.0508H63L65.8779 37.1387H65.9189V33.0508H66.3975ZM67.5732 38V33.0508H70.4648V33.4883H68.0586V35.3066H70.2393V35.7373H68.0586V38H67.5732ZM75.5303 35.5254C75.5337 37.0771 74.6348 38.0684 73.3838 38.0684C72.126 38.0684 71.2305 37.0737 71.2305 35.5254C71.2305 33.9736 72.126 32.9824 73.3838 32.9824C74.6348 32.9824 75.5337 33.9736 75.5303 35.5254ZM71.709 35.5254C71.7056 36.8379 72.4199 37.6104 73.3838 37.6104C74.3408 37.6104 75.0586 36.8413 75.0586 35.5254C75.0586 34.2095 74.3408 33.4404 73.3838 33.4404C72.4233 33.4404 71.7056 34.2061 71.709 35.5254ZM76.4941 38V33.0508H78.1143C79.1807 33.0508 79.7241 33.6694 79.7207 34.541C79.7241 35.2041 79.4097 35.7134 78.791 35.9185L79.9258 38H79.3652L78.292 36.0107C78.2373 36.0142 78.1792 36.0176 78.1211 36.0176H76.9795V38H76.4941ZM76.9795 35.5732H78.1006C78.873 35.5732 79.2422 35.1768 79.2422 34.541C79.2422 33.9053 78.873 33.4849 78.0938 33.4883H76.9795V35.5732ZM80.6914 33.0508H81.2588L83.0293 37.3027H83.0771L84.8408 33.0508H85.415V38H84.9502V34.0557H84.9092L83.2686 38H82.8311L81.1904 34.0557H81.1494V38H80.6914V33.0508ZM86.6455 38H86.1328L87.9307 33.0508H88.457L90.2549 38H89.7422L89.2227 36.5303H87.165L86.6455 38ZM87.3188 36.0996H89.0688L88.2109 33.6797H88.1768L87.3188 36.0996ZM90.0977 33.4883V33.0508H93.7139V33.4883H92.1553V38H91.6631V33.4883H90.0977ZM95.0811 33.0508V38H94.5957V33.0508H95.0811ZM100.338 35.5254C100.341 37.0771 99.4424 38.0684 98.1914 38.0684C96.9336 38.0684 96.0381 37.0737 96.0381 35.5254C96.0381 33.9736 96.9336 32.9824 98.1914 32.9824C99.4424 32.9824 100.341 33.9736 100.338 35.5254ZM96.5166 35.5254C96.5132 36.8379 97.2275 37.6104 98.1914 37.6104C99.1484 37.6104 99.8662 36.8413 99.8662 35.5254C99.8662 34.2095 99.1484 33.4404 98.1914 33.4404C97.231 33.4404 96.5132 34.2061 96.5166 35.5254ZM105.171 33.0508V38H104.706L101.828 33.9189H101.787V38H101.302V33.0508H101.773L104.651 37.1387H104.692V33.0508H105.171ZM107.741 33.4883V33.0508H111.357V33.4883H109.799V38H109.307V33.4883H107.741ZM112.239 38V33.0508H115.138V33.4883H112.725V35.3066H114.987V35.7373H112.725V37.5625H115.186V38H112.239ZM119.581 34.6025C119.444 33.9292 118.856 33.4404 118.104 33.4404C117.175 33.4404 116.426 34.1753 116.43 35.5254C116.426 36.8789 117.175 37.6104 118.104 37.6104C118.856 37.6104 119.441 37.125 119.581 36.4482H120.073C119.909 37.3711 119.154 38.0684 118.104 38.0684C116.847 38.0684 115.951 37.0771 115.951 35.5254C115.951 33.9736 116.847 32.9824 118.104 32.9824C119.15 32.9824 119.906 33.6694 120.073 34.6025H119.581ZM120.996 38V33.0508H121.481V35.3066H124.25V33.0508H124.742V38H124.25V35.7373H121.481V38H120.996ZM129.787 33.0508V38H129.322L126.444 33.9189H126.403V38H125.918V33.0508H126.39L129.268 37.1387H129.309V33.0508H129.787ZM135.044 35.5254C135.047 37.0771 134.148 38.0684 132.897 38.0684C131.64 38.0684 130.744 37.0737 130.744 35.5254C130.744 33.9736 131.64 32.9824 132.897 32.9824C134.148 32.9824 135.047 33.9736 135.044 35.5254ZM131.223 35.5254C131.219 36.8379 131.934 37.6104 132.897 37.6104C133.854 37.6104 134.572 36.8413 134.572 35.5254C134.572 34.2095 133.854 33.4404 132.897 33.4404C131.937 33.4404 131.219 34.2061 131.223 35.5254ZM136.008 38V33.0508H136.493V37.5625H138.838V38H136.008ZM143.609 35.5254C143.613 37.0771 142.714 38.0684 141.463 38.0684C140.205 38.0684 139.31 37.0737 139.31 35.5254C139.31 33.9736 140.205 32.9824 141.463 32.9824C142.714 32.9824 143.613 33.9736 143.609 35.5254ZM139.788 35.5254C139.785 36.8379 140.499 37.6104 141.463 37.6104C142.42 37.6104 143.138 36.8413 143.138 35.5254C143.138 34.2095 142.42 33.4404 141.463 33.4404C140.502 33.4404 139.785 34.2061 139.788 35.5254ZM147.984 34.5957C147.803 33.9497 147.287 33.4404 146.494 33.4404C145.544 33.4404 144.83 34.2061 144.833 35.5254C144.83 36.8413 145.541 37.6104 146.528 37.6104C147.41 37.6104 148.036 37.002 148.046 36.0176H146.631V35.5869H148.518V36.0107C148.521 37.2754 147.687 38.0684 146.528 38.0684C145.223 38.0684 144.354 37.0771 144.354 35.5254C144.354 33.9702 145.233 32.9824 146.494 32.9824C147.567 32.9824 148.323 33.7104 148.49 34.5957H147.984ZM148.894 33.0508H149.454L150.903 35.3887H150.944L152.394 33.0508H152.954L151.17 35.8809V38H150.678V35.8809L148.894 33.0508Z" fill="white"/>
<path d="M0 9.64925L4 7.18171L11 11.3765L7 13.5973V36.1753L0 40V9.64925Z" fill="url(#paint0_linear_78_33)"/>
<path d="M0 9.64925L4 7.18171L11 11.3765L7 13.5973V36.1753L0 40V9.64925Z" fill="white"/>
<path d="M13.75 2L6.625 6.07144L19.75 13.5974V18.2858L27 14.2143V9.64938L13.75 2Z" fill="url(#paint1_linear_78_33)"/>
<path d="M13.75 2L6.625 6.07144L19.75 13.5974V18.2858L27 14.2143V9.64938L13.75 2Z" fill="white"/>
<path d="M9.25 30.5001V22.3572L13.25 24.578L27 16.9286V25.0715L13.25 32.8442L9.25 30.5001Z" fill="url(#paint2_linear_78_33)"/>
<path d="M9.25 30.5001V22.3572L13.25 24.578L27 16.9286V25.0715L13.25 32.8442L9.25 30.5001Z" fill="white"/>
<defs>
<linearGradient id="paint0_linear_78_33" x1="1.39437" y1="32.0731" x2="11.3419" y2="31.0422" gradientUnits="userSpaceOnUse">
<stop stop-color="#2B80C2"/>
<stop offset="1" stop-color="#2869B3"/>
</linearGradient>
<linearGradient id="paint1_linear_78_33" x1="9.20775" y1="14.3521" x2="25.4072" y2="8.08575" gradientUnits="userSpaceOnUse">
<stop stop-color="#2B80C2"/>
<stop offset="1" stop-color="#2869B3"/>
</linearGradient>
<linearGradient id="paint2_linear_78_33" x1="11.5" y1="29" x2="26" y2="24" gradientUnits="userSpaceOnUse">
<stop stop-color="#2B80C2"/>
<stop offset="1" stop-color="#2869B3"/>
</linearGradient>
</defs>
</svg>
